<svg id="Layer_1" data-name="Layer 1" xmlns="http://www.w3.org/2000/svg" xmlns:xlink="http://www.w3.org/1999/xlink" width="1016.28" height="242.46" viewBox="0 0 1016.28 242.46">
  <defs>
    <clipPath id="clip-path">
      <path d="M99.4,178.21l-4-38.82a2.44,2.44,0,0,1,2.18-2.67l20.88-2.15c10.21-1.05,16.42,5.19,17.26,13.38s-4,15.49-14.18,16.55l-10.08,1,1.17,11.33a2.44,2.44,0,0,1-2.18,2.67l-8.38.86A2.44,2.44,0,0,1,99.4,178.21Zm22.9-28.89c-.24-2.36-2.13-3.29-4.35-3.06l-8.38.86.71,6.87,8.38-.86C120.88,152.9,122.54,151.61,122.3,149.32Z" fill="#3a1b7b"/>
    </clipPath>
    <clipPath id="clip-path-2">
      <path d="M167.31,172.2l-6.65-11.74-4.78.49L157,172.27a2.44,2.44,0,0,1-2.18,2.67l-8.38.86a2.44,2.44,0,0,1-2.67-2.18l-4-38.82a2.44,2.44,0,0,1,2.18-2.67L162.88,130c10.21-1.05,16.42,5.19,17.26,13.38.78,7.53-3.2,12-6.5,14L181,168.69a2.44,2.44,0,0,1-1.79,3.75l-9.51,1A2.44,2.44,0,0,1,167.31,172.2Zm-.6-27.52c-.24-2.36-2.45-3.19-4.67-3l-8.05.83.71,6.87,8.05-.83C165,148.36,167,147.1,166.71,144.68Z" fill="#3a1b7b"/>
    </clipPath>
    <clipPath id="clip-path-3">
      <path d="M190.1,168.87l-4-38.82a2.44,2.44,0,0,1,2.18-2.67l8.38-.86a2.44,2.44,0,0,1,2.67,2.18l4,38.82a2.44,2.44,0,0,1-2.18,2.67l-8.38.86A2.44,2.44,0,0,1,190.1,168.87Z" fill="#3a1b7b"/>
    </clipPath>
    <clipPath id="clip-path-4">
      <path d="M212.23,166.1l-3.9-37.85a2.93,2.93,0,0,1,2.61-3.21l16.6-1.71c13.75-1.42,24.77,5.39,26.21,19.34s-8,22.92-21.65,24.33l-16.67,1.72A2.93,2.93,0,0,1,212.23,166.1ZM240.34,144c-.61-5.89-4.46-9.93-11.53-9.2l-6.35.65,2.12,20.62,6.29-.65A10.14,10.14,0,0,0,240.34,144Z" fill="#3a1b7b"/>
    </clipPath>
    <clipPath id="clip-path-5">
      <path d="M261.72,161.55l-4-38.82a2.44,2.44,0,0,1,2.18-2.67l28.28-2.91a2.44,2.44,0,0,1,2.67,2.18l.69,6.67a2.44,2.44,0,0,1-2.18,2.67l-17.48,1.8.44,4.32,17-1.75a2.44,2.44,0,0,1,2.67,2.18l.69,6.67a2.44,2.44,0,0,1-2.18,2.67l-17,1.75.49,4.78,17.48-1.8a2.44,2.44,0,0,1,2.67,2.18l.69,6.67a2.44,2.44,0,0,1-2.18,2.67l-28.28,2.91A2.44,2.44,0,0,1,261.72,161.55Z" fill="#3a1b7b"/>
    </clipPath>
    <clipPath id="clip-path-6">
      <rect x="237.55" y="59.56" width="124.6" height="128.31" transform="translate(175.59 423.33) rotate(-89.9)" fill="none"/>
    </clipPath>
    <clipPath id="clip-path-7">
      <rect x="240.52" y="26.48" width="139.76" height="192.06" transform="translate(187.33 432.69) rotate(-89.9)" fill="none"/>
    </clipPath>
  </defs>
  <title>Logo til nettbutikk</title>
  <g>
    <path d="M380.25,179l.16-87,39.64.07c16.43,0,23.71,11,23.69,22.21,0,10.82-6.16,18-14.38,19.92,9,1.45,15.76,10.46,15.74,21.29,0,12.78-7.48,23.59-23.91,23.56Zm43.34-26.52c0-5-3-8.48-8.2-8.49l-14,0,0,17,14,0C420.58,160.92,423.58,157.93,423.59,152.45ZM422.22,118c0-4.69-2.59-7.83-7.42-7.84l-13.3,0,0,15.65,13.3,0C419.6,125.84,422.21,122.85,422.22,118Z" fill="#e350a0"/>
    <path d="M455.81,148.2l.1-56.07,21.26,0-.1,56.2c0,8.74,4.54,13.83,12.88,13.85s12.79-5.06,12.8-13.8l.1-56.2,21.26,0-.1,56.07c0,20.6-13.36,32.45-34.09,32.41S455.77,168.81,455.81,148.2Z" fill="#e350a0"/>
    <path d="M552.12,179.28l.12-68.59-18.65,0,0-18.39,58.29.11,0,18.39-18.52,0-.12,68.59Z" fill="#e350a0"/>
    <path d="M601.28,179.37l.16-87,21.13,0-.16,87Z" fill="#e350a0"/>
    <path d="M682.78,179.52l-17.29-31.85L660,156.79l0,22.69-21.12,0,.16-87,21.13,0L660,129.28l21.58-36.73,24.52,0-27.33,40.64,28.87,46.34Z" fill="#e350a0"/>
    <path d="M757.75,179.66l-17.29-31.85L735,156.93l0,22.69-21.12,0,.16-87,21.13,0L735,129.41l21.58-36.73,24.52,0L753.8,133.36l28.87,46.34Z" fill="#e350a0"/>
    <path d="M788.79,179.71l.16-87,52.42.09,0,18.39-31.3-.06,0,15.26,30.38.05,0,18.39L810,144.8l0,16.56,31.3.06,0,18.39Z" fill="#e350a0"/>
    <path d="M900.28,179.91,874,134.1l-.08,45.77-21.12,0,.16-87,21.52,0,24.83,43.6.08-43.55,21,0-.16,87Z" fill="#e350a0"/>
  </g>
  <g>
    <g>
      <path d="M90.15,109.82c-1.05-10.24,5.68-18.34,15.91-19.39s18.53,5.5,19.58,15.74-5.68,18.34-16,19.4S91.21,120.06,90.15,109.82Zm28.06-2.89c-.66-6.37-5.22-10.73-11.49-10.09s-9.79,5.85-9.14,12.21,5.17,10.74,11.44,10.09S118.87,113.25,118.21,106.93Z" fill="#3a1b7b"/>
      <path d="M131.12,116.76l1.66-2.92a1.7,1.7,0,0,1,2.4-.59,15,15,0,0,0,9.82,2.39c4-.41,5.72-2.44,5.52-4.38-.62-6-19.75.13-21.07-12.65-.58-5.65,3.82-10.84,11.82-11.66a19.51,19.51,0,0,1,12.3,2.41,1.71,1.71,0,0,1,.58,2.35l-1.71,2.82a1.71,1.71,0,0,1-2.3.59,15,15,0,0,0-8.87-1.79c-3.11.32-4.7,1.87-4.49,3.91.56,5.4,19.69-.23,21,12.46.64,6.21-3.31,11.35-12.48,12.3-5.76.59-10.26-.67-13.64-3A1.71,1.71,0,0,1,131.12,116.76Z" fill="#3a1b7b"/>
      <path d="M164.87,117.63l-3.15-30.57a1.71,1.71,0,0,1,1.52-1.87l3.84-.39A1.71,1.71,0,0,1,169,86.31l2.67,25.9,12.66-1.3a1.71,1.71,0,0,1,1.87,1.52l.31,3a1.71,1.71,0,0,1-1.52,1.87l-18.2,1.87A1.71,1.71,0,0,1,164.87,117.63Z" fill="#3a1b7b"/>
      <path d="M186.45,100.06c-1.05-10.24,5.68-18.34,15.91-19.39s18.53,5.5,19.58,15.74-5.68,18.34-16,19.4S187.5,110.3,186.45,100.06Zm28.06-2.89c-.66-6.37-5.22-10.73-11.49-10.09s-9.79,5.85-9.14,12.21,5.17,10.74,11.44,10.09S215.16,103.49,214.51,97.17Z" fill="#3a1b7b"/>
      <g>
        <path d="M99.4,178.21l-4-38.82a2.44,2.44,0,0,1,2.18-2.67l20.88-2.15c10.21-1.05,16.42,5.19,17.26,13.38s-4,15.49-14.18,16.55l-10.08,1,1.17,11.33a2.44,2.44,0,0,1-2.18,2.67l-8.38.86A2.44,2.44,0,0,1,99.4,178.21Zm22.9-28.89c-.24-2.36-2.13-3.29-4.35-3.06l-8.38.86.71,6.87,8.38-.86C120.88,152.9,122.54,151.61,122.3,149.32Z" fill="#3a1b7b"/>
        <g clip-path="url(#clip-path)">
          <polygon points="132.05 131.95 118.17 172.97 153.91 183.42 177.89 176.57 148.12 128.08 132.05 131.95" fill="#3a1b7b"/>
          <polygon points="87.14 130.52 132.04 134 112.15 190.58 88.24 183.98 87.14 130.52" fill="#3a1b7b"/>
        </g>
      </g>
      <g>
        <path d="M167.31,172.2l-6.65-11.74-4.78.49L157,172.27a2.44,2.44,0,0,1-2.18,2.67l-8.38.86a2.44,2.44,0,0,1-2.67-2.18l-4-38.82a2.44,2.44,0,0,1,2.18-2.67L162.88,130c10.21-1.05,16.42,5.19,17.26,13.38.78,7.53-3.2,12-6.5,14L181,168.69a2.44,2.44,0,0,1-1.79,3.75l-9.51,1A2.44,2.44,0,0,1,167.31,172.2Zm-.6-27.52c-.24-2.36-2.45-3.19-4.67-3l-8.05.83.71,6.87,8.05-.83C165,148.36,167,147.1,166.71,144.68Z" fill="#3a1b7b"/>
        <g clip-path="url(#clip-path-2)">
          <polygon points="140.85 124.06 176.88 182.35 220.14 117.33 140.85 124.06" fill="#3a1b7b"/>
          <polygon points="133.45 131.96 118.17 172.97 153.91 183.42 178.4 176.57 147.61 128.08 133.45 131.96" fill="#3a1b7b"/>
        </g>
      </g>
      <g>
        <path d="M190.1,168.87l-4-38.82a2.44,2.44,0,0,1,2.18-2.67l8.38-.86a2.44,2.44,0,0,1,2.67,2.18l4,38.82a2.44,2.44,0,0,1-2.18,2.67l-8.38.86A2.44,2.44,0,0,1,190.1,168.87Z" fill="#3a1b7b"/>
        <g clip-path="url(#clip-path-3)">
          <polygon points="144.91 124.07 180.94 185.41 215.05 117.33 144.91 124.07" fill="#3a1b7b"/>
          <polygon points="204.06 116.96 181.33 196.16 252.23 164.58 204.06 116.96" fill="#3a1b7b"/>
        </g>
      </g>
      <g>
        <path d="M212.23,166.1l-3.9-37.85a2.93,2.93,0,0,1,2.61-3.21l16.6-1.71c13.75-1.42,24.77,5.39,26.21,19.34s-8,22.92-21.65,24.33l-16.67,1.72A2.93,2.93,0,0,1,212.23,166.1ZM240.34,144c-.61-5.89-4.46-9.93-11.53-9.2l-6.35.65,2.12,20.62,6.29-.65A10.14,10.14,0,0,0,240.34,144Z" fill="#3a1b7b"/>
        <g clip-path="url(#clip-path-4)">
          <polygon points="226.87 114.94 209.8 117.55 254.81 173.13 273.98 166.22 286.54 113.94 226.87 114.94" fill="#3a1b7b"/>
          <polygon points="144.91 124.07 180.95 182.36 216.85 117.33 144.91 124.07" fill="#3a1b7b"/>
          <polygon points="213.22 114.39 177.02 187.8 253.86 170.69 213.22 114.39" fill="#3a1b7b"/>
        </g>
      </g>
      <g>
        <path d="M261.72,161.55l-4-38.82a2.44,2.44,0,0,1,2.18-2.67l28.28-2.91a2.44,2.44,0,0,1,2.67,2.18l.69,6.67a2.44,2.44,0,0,1-2.18,2.67l-17.48,1.8.44,4.32,17-1.75a2.44,2.44,0,0,1,2.67,2.18l.69,6.67a2.44,2.44,0,0,1-2.18,2.67l-17,1.75.49,4.78,17.48-1.8a2.44,2.44,0,0,1,2.67,2.18l.69,6.67a2.44,2.44,0,0,1-2.18,2.67l-28.28,2.91A2.44,2.44,0,0,1,261.72,161.55Z" fill="#3a1b7b"/>
        <g clip-path="url(#clip-path-5)">
          <polygon points="226.87 114.94 217.56 117.57 257.62 173.14 272.58 166.21 286.54 113.94 226.87 114.94" fill="#3a1b7b"/>
          <polygon points="302.44 113.92 287.06 113.2 286.16 113.2 269.66 175.19 302.88 166.4 302.44 113.92" fill="#3a1b7b"/>
        </g>
      </g>
    </g>
    <g clip-path="url(#clip-path-6)">
      <g clip-path="url(#clip-path-7)">
        <path d="M363.88,79.43,316.75,184a3.43,3.43,0,1,1-6.25-2.82l0-.06,49.2-103.63a2.28,2.28,0,0,1,4.15,1.92" fill="#4a3585"/>
        <path d="M255.53,93.4c.91-.72,2.34-1.73,4.1-2.88s3.84-2.44,6.12-3.78,4.77-2.71,7.38-4.07,5.35-2.7,8.17-4S287,76.2,290,75.07s6-2.15,9-3,6.12-1.66,9.22-2.25a71.5,71.5,0,0,1,9.37-1.17,51.34,51.34,0,0,1,9.39.3,37.56,37.56,0,0,1,9.22,2.35,31.12,31.12,0,0,1,8.7,5.23,34.39,34.39,0,0,1,7.6,9.34c1.9-2.87,2.85-4.28,4.7-7.17A37.49,37.49,0,0,0,348.74,69a32.54,32.54,0,0,0-9.28-5.22,37.87,37.87,0,0,0-9.63-2.11,50.73,50.73,0,0,0-9.66.08,70.72,70.72,0,0,0-9.53,1.64,95.75,95.75,0,0,0-9.31,2.76c-3.06,1.07-6.07,2.28-9,3.58s-5.83,2.7-8.63,4.15-5.51,3-8.08,4.47-5,3-7.26,4.48-4.26,2.83-6,4-3.06,2.21-3.91,2.87a10.3,10.3,0,0,1-3,3.69" fill="#a41d2f"/>
        <path d="M251.63,96a55.94,55.94,0,0,1,4.89-3.07c2.08-1.18,4.52-2.48,7.17-3.78s5.51-2.62,8.49-3.88,6.09-2.47,9.26-3.6,6.42-2.15,9.71-3,6.61-1.66,10-2.25a83.11,83.11,0,0,1,10.1-1.17,58.48,58.48,0,0,1,10.08.31,40.74,40.74,0,0,1,9.81,2.39,31.08,31.08,0,0,1,9.09,5.39A31.74,31.74,0,0,1,347.79,93c1.9-3,2.86-4.49,4.76-7.36a34.43,34.43,0,0,0-7.61-9.35,31.2,31.2,0,0,0-8.71-5.23A37.63,37.63,0,0,0,327,68.77a51.41,51.41,0,0,0-9.4-.29,71.56,71.56,0,0,0-9.37,1.18c-3.1.59-6.18,1.36-9.22,2.26s-6,1.93-9,3.05-5.85,2.35-8.66,3.63-5.55,2.63-8.17,4-5.1,2.74-7.38,4.08-4.36,2.63-6.12,3.78-3.18,2.16-4.1,2.88a18.21,18.21,0,0,1-4,2.67" fill="#d06533"/>
        <path d="M247.22,98.2a51.67,51.67,0,0,1,5.25-2.83c2.19-1.05,4.74-2.17,7.48-3.27s5.7-2.19,8.76-3.22,6.23-2,9.46-2.86,6.53-1.64,9.85-2.28,6.67-1.15,10-1.49a85.32,85.32,0,0,1,10.08-.46,60.45,60.45,0,0,1,10,.94,41.92,41.92,0,0,1,9.56,2.89,31.13,31.13,0,0,1,8.65,5.66,30.18,30.18,0,0,1,6.88,9.65c1.84-3.42,2.79-5,4.68-8a31.75,31.75,0,0,0-7.6-9.75,31.06,31.06,0,0,0-9.1-5.38,40.78,40.78,0,0,0-9.82-2.38,58.71,58.71,0,0,0-10.08-.29,82.4,82.4,0,0,0-10.1,1.19c-3.35.59-6.68,1.36-10,2.26s-6.53,1.93-9.7,3.06-6.28,2.34-9.26,3.61-5.84,2.59-8.49,3.9-5.09,2.61-7.16,3.79A56.35,56.35,0,0,0,251.71,96c-1.72.94-2.65,1.35-4.49,2.23" fill="#ffc100"/>
        <path d="M242.79,100.53A50.27,50.27,0,0,1,248.43,98c2.31-.88,5-1.79,7.83-2.66s5.9-1.71,9-2.47,6.39-1.45,9.69-2,6.64-1.08,10-1.43,6.74-.59,10.12-.66a89.48,89.48,0,0,1,10.09.34,63.43,63.43,0,0,1,9.86,1.66,43.83,43.83,0,0,1,9.32,3.47,31.57,31.57,0,0,1,8.23,6,29,29,0,0,1,6.21,9.65c.86-2,1.53-3.39,2.2-4.77s1.35-2.71,2.27-4.41a30.27,30.27,0,0,0-6.9-9.65,31.18,31.18,0,0,0-8.66-5.65,42.05,42.05,0,0,0-9.56-2.88,60.71,60.71,0,0,0-10-.93,86.26,86.26,0,0,0-10.08.47c-3.36.35-6.71.87-10,1.51s-6.61,1.42-9.84,2.29-6.4,1.84-9.46,2.87-6,2.13-8.75,3.23-5.29,2.23-7.48,3.28a52.67,52.67,0,0,0-5.25,2.83,45.41,45.41,0,0,0-4.53,2.37" fill="#5f8c66"/>
        <path d="M238.79,103.57a49.34,49.34,0,0,1,6-2c2.43-.69,5.2-1.35,8.16-2s6.09-1.16,9.32-1.63,6.55-.85,9.91-1.14,6.75-.46,10.15-.51,6.81,0,10.2.25a94.07,94.07,0,0,1,10.08,1.21,67.12,67.12,0,0,1,9.75,2.46,45.74,45.74,0,0,1,9.07,4.14,32.33,32.33,0,0,1,7.8,6.48,28.18,28.18,0,0,1,5.51,9.75c.78-2.36,1.39-4,2-5.65s1.25-3.19,2.12-5.17a29,29,0,0,0-6.22-9.66,31.68,31.68,0,0,0-8.24-6,43.61,43.61,0,0,0-9.33-3.46A63.75,63.75,0,0,0,305.26,89a89.48,89.48,0,0,0-10.09-.32c-3.38.07-6.76.31-10.12.68s-6.71.86-10,1.45-6.54,1.29-9.69,2.05-6.19,1.6-9,2.48S250.81,97.1,248.5,98a50.36,50.36,0,0,0-5.63,2.49,17.44,17.44,0,0,0-4.08,3.1" fill="#b2c0e3"/>
        <path d="M235.72,107.9a48.37,48.37,0,0,1,6.35-1.53c2.54-.46,5.4-.87,8.45-1.19s6.26-.57,9.56-.72,6.68-.21,10.09-.17,6.84.2,10.27.47,6.85.67,10.24,1.22a98.25,98.25,0,0,1,10,2.14,70.47,70.47,0,0,1,9.6,3.32,48,48,0,0,1,8.79,4.88,33.11,33.11,0,0,1,7.32,7,27.58,27.58,0,0,1,4.78,9.93c.67-2.84,1.21-4.83,1.75-6.77s1.11-3.81,1.89-6.16a28.25,28.25,0,0,0-5.53-9.75,32.36,32.36,0,0,0-7.8-6.47,45.79,45.79,0,0,0-9.08-4.13,66.55,66.55,0,0,0-9.75-2.44,93.43,93.43,0,0,0-10.08-1.19c-3.39-.23-6.8-.29-10.2-.23s-6.8.24-10.15.53-6.67.68-9.9,1.15-6.36,1-9.32,1.65-5.72,1.29-8.15,2a49.39,49.39,0,0,0-6,2.05,12.8,12.8,0,0,0-3.14,4.4" fill="#4a3585"/>
      </g>
    </g>
  </g>
</svg>
