<svg id="Group_849" data-name="Group 849" xmlns="http://www.w3.org/2000/svg" width="30.816" height="30.816" viewBox="0 0 30.816 30.816">
  <circle id="Ellipse_27" data-name="Ellipse 27" cx="15.408" cy="15.408" r="15.408" transform="translate(0 0)" fill="#3a1b7b"/>
  <path id="linkedin-in" d="M7.6,4A1.61,1.61,0,1,0,9.2,5.6,1.6,1.6,0,0,0,7.6,4ZM15.42,8.245a2.659,2.659,0,0,0-2.485,1.4H12.9V8.433H10.245V17.34h2.763V12.931c0-1.162.088-2.285,1.525-2.285,1.417,0,1.438,1.325,1.438,2.358V17.34h2.763V12.448C18.734,10.054,18.219,8.245,15.42,8.245Zm-9.2.188V17.34H8.986V8.433Z" transform="translate(3.041 4.2)" fill="#fff"/>
</svg>
