<?xml version="1.0" encoding="utf-8"?>
<!-- Generator: Adobe Illustrator 21.0.0, SVG Export Plug-In . SVG Version: 6.00 Build 0)  -->
<!DOCTYPE svg PUBLIC "-//W3C//DTD SVG 1.1//EN" "http://www.w3.org/Graphics/SVG/1.1/DTD/svg11.dtd">
<svg version="1.1" id="Layer_1" xmlns="http://www.w3.org/2000/svg" xmlns:xlink="http://www.w3.org/1999/xlink" x="0px" y="0px"
	 width="2893.5px" height="1670.8px" viewBox="0 0 2893.5 1670.8" style="enable-background:new 0 0 2893.5 1670.8;"
	 xml:space="preserve">
<style type="text/css">
	.st0{fill: #ffffff;}
	.st1{clip-path:url(#SVGID_2_);fill: #ffffff;}
	.st2{clip-path:url(#SVGID_2_);fill: #ffffff;}
	.st3{clip-path:url(#SVGID_4_);fill: #ffffff;}
	.st4{clip-path:url(#SVGID_4_);fill: #ffffff;}
	.st5{clip-path:url(#SVGID_6_);fill: #ffffff;}
	.st6{clip-path:url(#SVGID_6_);fill: #ffffff;}
	.st7{clip-path:url(#SVGID_8_);fill: #ffffff;}
	.st8{clip-path:url(#SVGID_8_);fill: #ffffff;}
	.st9{clip-path:url(#SVGID_8_);fill: #ffffff;}
	.st10{clip-path:url(#SVGID_10_);fill: #ffffff;}
	.st11{clip-path:url(#SVGID_10_);fill: #ffffff;}
</style>
<path class="st0" d="M334.9,631.1c-11.6-110.7,61-198.4,171.7-210c111.2-11.7,200.4,59.1,212,169.8c11.6,110.7-61,198.4-172.2,210.1
	C435.7,812.6,346.5,741.8,334.9,631.1z M638.2,599.3c-7.2-68.8-56.7-115.9-124.4-108.9c-67.7,7.1-105.8,63.4-98.6,132.2
	c7.2,68.3,56.1,116,123.8,108.9C606.8,724.5,645.3,667.6,638.2,599.3z"/>
<path class="st0" d="M777.9,705.3l17.9-31.6c5.2-9.2,17.1-12.3,26-6.5c27.6,18.1,64.1,30,106.2,25.6c42.9-4.5,61.8-26.5,59.6-47.4
	c-6.8-65-213.5,1.8-228-136.4c-6.4-61.1,41.1-117.3,127.6-126.4c51.1-5.4,96,3.6,133.1,25.9c8.8,5.3,11.6,16.7,6.3,25.4l-18.5,30.5
	c-5.2,8.5-16.2,11.4-24.9,6.4c-29.7-16.8-64.1-22.5-96-19.2c-33.6,3.5-50.7,20.3-48.4,42.4c6.1,58.4,212.9-2.8,227.2,134.3
	c7,67.2-35.5,122.8-134.6,133.2c-62.3,6.5-111-7.1-147.5-31.8C775.7,724.3,773.2,713.7,777.9,705.3z"/>
<path class="st0" d="M1142.9,714l-34.6-330.5c-1.1-10.1,6.3-19.2,16.4-20.3l41.5-4.3c10.1-1.1,19.2,6.3,20.3,16.4l29.3,280
	l136.9-14.3c10.1-1.1,19.2,6.3,20.3,16.4l3.4,32.1c1.1,10.1-6.3,19.2-16.4,20.3l-196.7,20.6C1153,731.5,1143.9,724.2,1142.9,714z"/>
<path class="st0" d="M1375.8,523.6c-11.6-110.7,61-198.4,171.7-210c111.2-11.7,200.4,59.1,212,169.8
	c11.6,110.7-61,198.4-172.2,210.1C1476.6,705.1,1387.4,634.3,1375.8,523.6z M1679.2,491.9c-7.2-68.8-56.7-116-124.4-108.9
	s-105.8,63.4-98.6,132.2c7.2,68.3,56.1,116,123.8,108.9C1647.7,617,1686.3,560.1,1679.2,491.9z"/>
<g>
	<defs>
		<path id="SVGID_1_" d="M436.2,1370.3l-44-419.7c-1.5-14.5,9-27.4,23.5-29L641.4,898c110.4-11.6,177.6,55.8,186.9,144.3
			c9.2,87.8-42.5,167.6-153,179.2l-109,11.4l12.8,122.4c1.5,14.5-9,27.4-23.5,29l-90.5,9.5C450.7,1395.3,437.7,1384.8,436.2,1370.3z
			 M683.2,1057.5c-2.7-25.5-23-35.5-47.1-33l-90.6,9.5l7.8,74.3l90.6-9.5C667.9,1096.3,685.8,1082.2,683.2,1057.5z"/>
	</defs>
	<clipPath id="SVGID_2_">
		<use xlink:href="#SVGID_1_"  style="overflow:visible;"/>
	</clipPath>
	<polygon class="st1" points="788.2,869.5 639,1313.3 1025.6,1425.6 1284.8,1351 961.9,827.4 	"/>
	<polygon class="st2" points="302.7,854.9 788.2,891.7 574.2,1503.8 315.6,1432.9 	"/>
</g>
<g>
	<defs>
		<path id="SVGID_3_" d="M1170.3,1304l-72.2-126.8l-51.7,5.4l12.8,122.4c1.5,14.5-9,27.4-23.5,29l-90.5,9.5
			c-14.5,1.5-27.4-9-29-23.5l-44-419.7c-1.5-14.5,9-27.4,23.5-29l225.8-23.7c110.4-11.6,177.6,55.8,186.9,144.3
			c8.5,81.4-34.4,129.5-70,151.9l79.6,121.9c10.8,16.5,0.3,38.6-19.3,40.6l-102.8,10.8C1185.6,1318.2,1175.5,1313.1,1170.3,1304z
			 M1163.3,1006.4c-2.7-25.5-26.5-34.4-50.6-31.9l-87.1,9.1l7.8,74.3l87.1-9.1C1144.6,1046.3,1166,1032.6,1163.3,1006.4z"/>
	</defs>
	<clipPath id="SVGID_4_">
		<use xlink:href="#SVGID_3_"  style="overflow:visible;"/>
	</clipPath>
	<polygon class="st3" points="883.2,784 1273.9,1413.6 1740.4,709.8 	"/>
	<polygon class="st4" points="803.4,869.5 639,1313.3 1025.6,1425.6 1290.3,1351 956.4,827.4 	"/>
</g>
<g>
	<defs>
		<path id="SVGID_5_" d="M1416.7,1267.5l-44-419.7c-1.5-14.5,9-27.4,23.5-29l90.5-9.5c14.5-1.5,27.4,9,29,23.5l44,419.7
			c1.5,14.5-9,27.4-23.5,29l-90.5,9.5C1431.2,1292.5,1418.2,1282,1416.7,1267.5z"/>
	</defs>
	<clipPath id="SVGID_6_">
		<use xlink:href="#SVGID_5_"  style="overflow:visible;"/>
	</clipPath>
	<polygon class="st5" points="927.2,784 1317.9,1446.6 1685.4,709.8 	"/>
	<polygon class="st6" points="1566.5,706.1 1322.4,1562.8 2088.3,1219.9 	"/>
</g>
<g>
	<defs>
		<path id="SVGID_7_" d="M1655.9,1237.2L1613,828c-1.8-17.4,10.8-32.9,28.2-34.8l179.5-18.8c148.6-15.6,268,57.8,283.8,208.6
			c15.8,150.8-85.6,248-233.6,263.5l-180.2,18.9C1673.3,1267.1,1657.7,1254.5,1655.9,1237.2z M1959.3,998.2
			c-6.7-63.7-48.5-107.3-124.9-99.3l-68.7,7.2l23.4,223l68-7.1C1928.6,1114.4,1965.6,1057.6,1959.3,998.2z"/>
	</defs>
	<clipPath id="SVGID_8_">
		<use xlink:href="#SVGID_7_"  style="overflow:visible;"/>
	</clipPath>
	<polygon class="st7" points="1813.1,683.7 1628.6,712.3 2116.4,1312.4 2323.6,1237.2 2458.3,671.7 	"/>
	<polygon class="st8" points="927.2,784 1317.9,1413.6 1704.8,709.8 	"/>
	<polygon class="st9" points="1665.5,678.1 1275.6,1472.5 2106,1286 	"/>
</g>
<g>
	<defs>
		<path id="SVGID_9_" d="M2190.9,1187.1l-44-419.7c-1.5-14.5,9-27.4,23.5-29l305.7-32c14.5-1.5,27.4,9,29,23.5l7.6,72.1
			c1.5,14.5-9,27.4-23.5,29l-189,19.8l4.9,46.7l184-19.3c14.5-1.5,27.4,9,29,23.5l7.6,72.1c1.5,14.5-9,27.4-23.5,29l-184,19.3
			l5.4,51.7l189-19.8c14.5-1.5,27.4,9,29,23.5l7.6,72.1c1.5,14.5-9,27.4-23.5,29l-305.7,32C2205.4,1212,2192.4,1201.5,2190.9,1187.1
			z"/>
	</defs>
	<clipPath id="SVGID_10_">
		<use xlink:href="#SVGID_9_"  style="overflow:visible;"/>
	</clipPath>
	<polygon class="st10" points="1813.1,683.7 1712.6,712.3 2146.8,1312.4 2308.4,1237.2 2458.3,671.7 	"/>
	<polygon class="st11" points="2630.2,671.2 2463.9,663.8 2454.2,663.8 2277,1334.4 2636,1238.7 	"/>
</g>
</svg>
