<svg id="Group_848" data-name="Group 848" xmlns="http://www.w3.org/2000/svg" width="30.816" height="30.816" viewBox="0 0 30.816 30.816">
  <circle id="Ellipse_26" data-name="Ellipse 26" cx="15.408" cy="15.408" r="15.408" transform="translate(0 0)" fill="#3a1b7b"/>
  <path id="Icon_awesome-instagram" data-name="Icon awesome-instagram" d="M6.943,5.622A3.561,3.561,0,1,0,10.5,9.183,3.556,3.556,0,0,0,6.943,5.622Zm0,5.877A2.315,2.315,0,1,1,9.258,9.183,2.32,2.32,0,0,1,6.943,11.5Zm4.538-6.022a.831.831,0,1,1-.831-.831A.829.829,0,0,1,11.481,5.476Zm2.359.843a4.111,4.111,0,0,0-1.122-2.91,4.138,4.138,0,0,0-2.91-1.122c-1.147-.065-4.584-.065-5.731,0a4.132,4.132,0,0,0-2.91,1.119A4.124,4.124,0,0,0,.044,6.316c-.065,1.147-.065,4.584,0,5.731a4.111,4.111,0,0,0,1.122,2.91,4.143,4.143,0,0,0,2.91,1.122c1.147.065,4.584.065,5.731,0a4.111,4.111,0,0,0,2.91-1.122,4.138,4.138,0,0,0,1.122-2.91c.065-1.147.065-4.581,0-5.728Zm-1.482,6.958a2.344,2.344,0,0,1-1.32,1.32,15.308,15.308,0,0,1-4.094.279A15.428,15.428,0,0,1,2.849,14.6a2.344,2.344,0,0,1-1.32-1.32,15.308,15.308,0,0,1-.279-4.094,15.428,15.428,0,0,1,.279-4.094,2.344,2.344,0,0,1,1.32-1.32,15.308,15.308,0,0,1,4.094-.279,15.428,15.428,0,0,1,4.094.279,2.344,2.344,0,0,1,1.32,1.32,15.308,15.308,0,0,1,.279,4.094A15.3,15.3,0,0,1,12.358,13.277Z" transform="translate(8.666 6.479)" fill="#fff"/>
</svg>
