<svg xmlns="http://www.w3.org/2000/svg" xmlns:xlink="http://www.w3.org/1999/xlink" width="30.855" height="26.308" viewBox="0 0 30.855 26.308">
  <defs>
    <clipPath id="clip-path">
      <path id="Path_497" d="M175.636,286.869h0a7.717,7.717,0,0,0-10.88,0l-2.3,2.3-2.3-2.3a7.717,7.717,0,0,0-10.88,0h0a7.717,7.717,0,0,0,0,10.88l2.3,2.3,10.88,10.88,10.88-10.88,2.3-2.3A7.717,7.717,0,0,0,175.636,286.869Z" transform="translate(-147.025 -284.625)"/>
    </clipPath>
  </defs>
  <g id="prideheart" transform="translate(-147.025 -284.625)">
    <g id="Group_751" transform="translate(147.025 284.625)" clip-path="url(#clip-path)">
      <path id="Path_492" d="M472.1,1240.5l19.473-5.8-9.736,11.778Z" transform="translate(-466.217 -1217.506)" fill="#3a1b7b"/>
      <path id="Path_493" d="M256.3,1067.9l24.444,2.664-16.394,6.244Z" transform="translate(-254.322 -1053.725)" fill="#aec2e6"/>
      <path id="Path_494" d="M-110.343,760.5l-37.257,7.073,33.766,1.509Z" transform="translate(142.268 -751.888)" fill="#428c63"/>
      <rect id="Rectangle_344" width="28.587" height="16.128" transform="translate(-0.509 -7.308)" fill="#a41d2f"/>
      <path id="Path_495" d="M17.378,440l22.4,7.547L14.3,452.429Z" transform="translate(-16.702 -437.188)" fill="#ef5e2b"/>
      <path id="Path_496" d="M764.684,230.1,740.3,234.779,757.168,220.9Z" transform="translate(-729.563 -222.053)" fill="#ffc100"/>
    </g>
  </g>
</svg>
