<?xml version="1.0" encoding="UTF-8"?>
<svg xmlns="http://www.w3.org/2000/svg" xmlns:xlink="http://www.w3.org/1999/xlink" width="32px" height="30px" viewBox="0 0 31 30" version="1.1">
<g id="surface1">
<path style=" stroke:none;fill-rule:nonzero;fill:rgb(100%,100%,100%);fill-opacity:1;" d="M 14.492188 11.730469 L 14.867188 7.527344 C 14.9375 6.773438 14.398438 6.109375 13.664062 6.039062 C 12.929688 5.96875 12.28125 6.523438 12.210938 7.277344 L 11.824219 11.582031 L 5.886719 11.582031 C 5.148438 11.582031 4.550781 12.195312 4.550781 12.953125 C 4.550781 13.710938 5.148438 14.324219 5.886719 14.324219 L 11.578125 14.324219 L 11.378906 16.550781 L 7.519531 16.550781 C 7.066406 16.550781 6.644531 16.789062 6.398438 17.179688 L 1.839844 24.425781 C 1.441406 25.0625 1.617188 25.910156 2.234375 26.320312 C 2.460938 26.46875 2.710938 26.539062 2.957031 26.539062 C 3.394531 26.539062 3.824219 26.320312 4.078125 25.914062 L 8.246094 19.292969 L 12.59375 19.292969 C 13.28125 19.292969 13.859375 18.753906 13.921875 18.046875 L 14.242188 14.476562 C 16.847656 15.085938 18.796875 17.484375 18.796875 20.34375 C 18.796875 23.664062 16.167969 26.363281 12.9375 26.363281 C 11.136719 26.363281 9.464844 25.53125 8.34375 24.082031 C 7.886719 23.488281 7.046875 23.386719 6.46875 23.859375 C 5.894531 24.328125 5.796875 25.191406 6.253906 25.785156 C 7.882812 27.894531 10.320312 29.105469 12.9375 29.105469 C 17.636719 29.105469 21.460938 25.175781 21.460938 20.34375 C 21.464844 16.058594 18.453125 12.480469 14.492188 11.730469 Z M 14.492188 11.730469 "/>
<path style=" stroke:none;fill-rule:nonzero;fill:rgb(100%,100%,100%);fill-opacity:1;" d="M 13.683594 5.15625 C 14.710938 5.15625 15.542969 4.300781 15.542969 3.246094 C 15.542969 2.191406 14.710938 1.339844 13.683594 1.339844 C 12.660156 1.339844 11.828125 2.191406 11.828125 3.246094 C 11.828125 4.300781 12.660156 5.15625 13.683594 5.15625 Z M 13.683594 5.15625 "/>
<path style=" stroke:none;fill-rule:nonzero;fill:rgb(100%,100%,100%);fill-opacity:1;" d="M 19.433594 12.960938 C 19.476562 12.964844 19.515625 12.964844 19.558594 12.964844 C 20.238281 12.964844 20.820312 12.433594 20.886719 11.722656 L 21.261719 7.527344 C 21.328125 6.777344 20.789062 6.109375 20.058594 6.039062 C 19.324219 5.96875 18.675781 6.523438 18.605469 7.277344 L 18.230469 11.46875 C 18.160156 12.222656 18.703125 12.890625 19.433594 12.960938 Z M 19.433594 12.960938 "/>
<path style=" stroke:none;fill-rule:nonzero;fill:rgb(100%,100%,100%);fill-opacity:1;" d="M 22.003906 3.246094 C 22.003906 4.300781 21.171875 5.15625 20.148438 5.15625 C 19.121094 5.15625 18.289062 4.300781 18.289062 3.246094 C 18.289062 2.191406 19.121094 1.339844 20.148438 1.339844 C 21.171875 1.339844 22.003906 2.191406 22.003906 3.246094 Z M 22.003906 3.246094 "/>
<path style=" stroke:none;fill-rule:nonzero;fill:rgb(100%,100%,100%);fill-opacity:1;" d="M 27.621094 7.527344 C 27.6875 6.773438 27.148438 6.109375 26.417969 6.039062 C 25.683594 5.96875 25.035156 6.523438 24.964844 7.277344 L 23.136719 27.609375 C 23.070312 28.363281 23.609375 29.03125 24.34375 29.097656 C 24.382812 29.101562 24.425781 29.105469 24.46875 29.105469 C 25.148438 29.105469 25.730469 28.570312 25.792969 27.863281 Z M 27.621094 7.527344 "/>
<path style=" stroke:none;fill-rule:nonzero;fill:rgb(100%,100%,100%);fill-opacity:1;" d="M 26.4375 1.339844 C 25.410156 1.339844 24.578125 2.191406 24.578125 3.246094 C 24.578125 4.300781 25.410156 5.15625 26.4375 5.15625 C 27.460938 5.15625 28.292969 4.300781 28.292969 3.246094 C 28.292969 2.191406 27.464844 1.339844 26.4375 1.339844 Z M 26.4375 1.339844 "/>
</g>
</svg>
