<svg xmlns="http://www.w3.org/2000/svg" xmlns:xlink="http://www.w3.org/1999/xlink" width="30px" height="28.125px" viewBox="0 0 29.063 28.125" version="1.1">
  <g id="surface1">
    <path style="stroke:none;fill-rule:nonzero;fill:rgb(100%,100%,100%);fill-opacity:1" d="M13.586 10.997L13.938 7.057C14.004 6.35 13.499 5.728 12.81 5.662C12.122 5.596 11.514 6.116 11.448 6.823L11.085 10.858L5.519 10.858C4.827 10.858 4.266 11.433 4.266 12.144C4.266 12.854 4.827 13.429 5.519 13.429L10.854 13.429L10.668 15.516L7.05 15.516C6.625 15.516 6.229 15.74 5.999 16.106L1.725 22.899C1.351 23.496 1.516 24.291 2.095 24.675C2.307 24.814 2.541 24.88 2.772 24.88C3.182 24.88 3.585 24.675 3.823 24.294L7.731 18.087L11.807 18.087C12.451 18.087 12.993 17.582 13.052 16.919L13.352 13.572C15.795 14.143 17.622 16.392 17.622 19.072C17.622 22.185 15.157 24.716 12.129 24.716C10.441 24.716 8.873 23.936 7.822 22.577C7.394 22.02 6.606 21.925 6.064 22.368C5.526 22.808 5.435 23.617 5.863 24.174C7.39 26.151 9.675 27.286 12.129 27.286C16.534 27.286 20.12 23.602 20.12 19.072C20.123 15.055 17.3 11.7 13.586 10.997ZM13.586 10.997"/>
    <path style="stroke:none;fill-rule:nonzero;fill:rgb(100%,100%,100%);fill-opacity:1" d="M12.828 4.834C13.791 4.834 14.572 4.032 14.572 3.043C14.572 2.054 13.791 1.256 12.828 1.256C11.869 1.256 11.089 2.054 11.089 3.043C11.089 4.032 11.869 4.834 12.828 4.834ZM12.828 4.834"/>
    <path style="stroke:none;fill-rule:nonzero;fill:rgb(100%,100%,100%);fill-opacity:1" d="M18.219 12.151C18.259 12.155 18.296 12.155 18.336 12.155C18.973 12.155 19.519 11.657 19.581 10.99L19.933 7.057C19.995 6.354 19.49 5.728 18.805 5.662C18.116 5.596 17.509 6.116 17.443 6.823L17.091 10.752C17.025 11.459 17.534 12.085 18.219 12.151ZM18.219 12.151"/>
    <path style="stroke:none;fill-rule:nonzero;fill:rgb(100%,100%,100%);fill-opacity:1" d="M20.629 3.043C20.629 4.032 19.849 4.834 18.889 4.834C17.926 4.834 17.146 4.032 17.146 3.043C17.146 2.054 17.926 1.256 18.889 1.256C19.849 1.256 20.629 2.054 20.629 3.043ZM20.629 3.043"/>
    <path style="stroke:none;fill-rule:nonzero;fill:rgb(100%,100%,100%);fill-opacity:1" d="M25.895 7.057C25.957 6.35 25.452 5.728 24.767 5.662C24.078 5.596 23.47 6.116 23.405 6.823L21.691 25.884C21.628 26.591 22.134 27.217 22.822 27.279C22.859 27.283 22.899 27.286 22.939 27.286C23.577 27.286 24.122 26.785 24.181 26.122ZM25.895 7.057"/>
    <path style="stroke:none;fill-rule:nonzero;fill:rgb(100%,100%,100%);fill-opacity:1" d="M24.785 1.256C23.822 1.256 23.042 2.054 23.042 3.043C23.042 4.032 23.822 4.834 24.785 4.834C25.745 4.834 26.525 4.032 26.525 3.043C26.525 2.054 25.748 1.256 24.785 1.256ZM24.785 1.256"/>
  </g>
</svg>
