<?xml version="1.0" standalone="no"?>
<!DOCTYPE svg PUBLIC "-//W3C//DTD SVG 20010904//EN"
 "http://www.w3.org/TR/2001/REC-SVG-20010904/DTD/svg10.dtd">
<svg version="1.0" xmlns="http://www.w3.org/2000/svg"
 width="700.000000pt" height="700.000000pt" viewBox="0 0 700.000000 700.000000"
 preserveAspectRatio="xMidYMid meet">
<metadata>
Created by potrace 1.11, written by Peter Selinger 2001-2013
</metadata>
<g transform="translate(0.000000,700.000000) scale(0.100000,-0.100000)"
fill="#000000" stroke="none">
<path d="M1988 6005 c-2 -1 -46 -5 -98 -8 -52 -4 -108 -9 -125 -12 -16 -3 -39
-8 -50 -10 -185 -33 -419 -134 -580 -250 -490 -353 -719 -969 -579 -1555 47
-193 139 -389 260 -551 26 -35 640 -658 1365 -1384 l1318 -1320 1318 1320
c1091 1092 1330 1336 1385 1415 123 174 216 392 254 597 19 98 27 382 14 454
-5 24 -11 64 -15 89 -13 90 -76 281 -127 385 -165 334 -480 618 -818 737 -82
28 -228 65 -290 73 -30 4 -64 9 -75 11 -25 6 -246 5 -300 0 -279 -27 -557
-142 -785 -325 -36 -28 -176 -163 -312 -298 -136 -136 -250 -245 -253 -242 -2
2 -118 117 -257 254 -311 308 -417 391 -614 481 -79 36 -197 78 -244 88 -14 3
-56 12 -95 20 -38 9 -108 18 -155 22 -47 3 -97 7 -112 9 -15 2 -28 2 -30 0z"/>
</g>
</svg>
